# xmcd CD database file
#
# Track frame offsets:
#	150
#	13010
#	25530
#	36900
#	50748
#	61708
#	74280
#	87575
#	98463
#	108923
#	119840
#	130285
#	143130
#	152048
#	162725
#
# Disc length: 2336 seconds
#
# Revision: 2
# Processed by: cddbd v1.5.2PL0 Copyright (c) Steve Scherf et al.
# Submitted via: CDex 1.51
#
DISCID=cd091e0f
DTITLE=Various Artist - LirekasCD'n  No. 1 - Som Duft Av Røde Roser
DYEAR=1994
DGENRE=Schillingsviser
TTITLE0=Jens Book Jensen and Akres kvintett - Som Duft Av Røde Roser - 1938
TTITLE1=Jens Book Jensen m. Ø.Bergh's Bristolorkester - Sollyse Dager Ved Mexicos Strand - 1939
TTITLE2=Jens Book Jensen and Akres kvintett - Når Månen Går Bort Bak En Sky - 1937
TTITLE3=Jens Book Jensen and Akres kvintett - Setervalsen - 1935 
TTITLE4=Jacob Hjelte - Originalinnspilling - Billy Bryants Kafé - 1957
TTITLE5=Bjørg og Per Gunnars kvintett - Så Kom Våren Til Tarina - 
TTITLE6=Jens Book Jensen and Columbia danseorkester - Den Lille Ring Du Ga Meg - 1937
TTITLE7=Jens Book Jensen and Akres kvintett - De Lyse Netters Melodi 1938
TTITLE8=Jens Book Jensen and Akres kvintett - I Den Gamle Allé - 1938
TTITLE9=Herman Hermani - Originalinnspilling - Lille Malu - 1938
TTITLE10=Jens Book Jensen m.Rolf Syversens orkester - Vår Lille Holme - 1941
TTITLE11=Hans Eriksen - Originalinnspilling - Hun Er Bare Nitten Somre - 1938
TTITLE12=Arne Reidar - Originalinnspilling - En Liten Lykkesko - 1937
TTITLE13=Jens Book Jensen and Akres kvintett - Skogstien - 1935
TTITLE14=Jens Book Jensen m. Ø.Bergh's Bristolorkester - Gi Meg Ditt Hjerte Maria - 1940
EXTD=YEAR: 1994
EXTT0=
EXTT1=
EXTT2=
EXTT3=
EXTT4=
EXTT5=
EXTT6=
EXTT7=
EXTT8=
EXTT9=
EXTT10=
EXTT11=
EXTT12=
EXTT13=
EXTT14=
PLAYORDER=
